<svg id="Capa_1" enable-background="new 0 0 512 512" height="512" viewBox="0 0 512 512" width="512" xmlns="http://www.w3.org/2000/svg" xmlns:xlink="http://www.w3.org/1999/xlink"><linearGradient id="SVGID_1_" gradientUnits="userSpaceOnUse" x1="256" x2="256" y1="512" y2="0"><stop offset="0" stop-color="#addcff"/><stop offset=".5028" stop-color="#eaf6ff"/><stop offset="1" stop-color="#eaf6ff"/></linearGradient><linearGradient id="SVGID_2_" gradientUnits="userSpaceOnUse" x1="256" x2="256" y1="407" y2="105"><stop offset="0" stop-color="#00c0ff"/><stop offset="1" stop-color="#5558ff"/></linearGradient><g><g><circle cx="256" cy="256" fill="url(#SVGID_1_)" r="256"/></g><g><g><path d="m263.954 259.947c1.501-3.019 1.162-6.627-.876-9.316l-13.983-18.424c10.227-13.783 15.787-30.316 15.787-47.266 0-44.082-35.859-79.941-79.941-79.941s-79.941 35.859-79.941 79.941 35.859 79.941 79.941 79.941h71.059c3.374 0 6.454-1.908 7.954-4.935zm63.105-12.829c-44.082 0-79.941 35.859-79.941 79.941 0 16.949 5.56 33.482 15.787 47.266l-13.983 18.424c-2.038 2.689-2.377 6.297-.876 9.316 1.501 3.027 4.58 4.936 7.954 4.936h71.059c44.082-.001 79.941-35.86 79.941-79.942s-35.859-79.941-79.941-79.941z" fill="url(#SVGID_2_)"/></g></g></g></svg>