<?xml version="1.0" encoding="UTF-8" standalone="no" ?>
<!DOCTYPE svg PUBLIC "-//W3C//DTD SVG 1.1//EN" "http://www.w3.org/Graphics/SVG/1.1/DTD/svg11.dtd">
<svg xmlns="http://www.w3.org/2000/svg" xmlns:xlink="http://www.w3.org/1999/xlink" version="1.1" width="350" height="350" viewBox="0 0 350 350" xml:space="preserve">
<desc>Created with Fabric.js 1.7.22</desc>
<defs>
</defs>
<g id="icon" style="stroke: none; stroke-width: 1; stroke-dasharray: none; stroke-linecap: butt; stroke-linejoin: miter; stroke-miterlimit: 10; fill: none; fill-rule: nonzero; opacity: 1;" transform="translate(-1.9444444444444287 -1.9444444444444287) scale(3.89 3.89)" >
	<path d="M 70.892 0 H 30.958 c -3.362 0 -6.098 2.736 -6.098 6.098 v 16.685 h -7.122 c -2.607 0 -4.728 2.121 -4.728 4.728 v 13.078 c 0 2.607 2.121 4.728 4.728 4.728 h 7.122 v 38.586 c 0 3.362 2.736 6.099 6.098 6.099 h 39.934 c 3.363 0 6.099 -2.736 6.099 -6.099 V 6.098 C 76.99 2.736 74.255 0 70.892 0 z M 30.958 2 h 39.934 c 2.26 0 4.099 1.838 4.099 4.098 v 4.319 H 26.859 V 6.098 C 26.859 3.838 28.698 2 30.958 2 z M 15.01 40.588 V 27.51 c 0 -1.504 1.224 -2.728 2.728 -2.728 h 40.31 c 1.504 0 2.728 1.224 2.728 2.728 v 13.078 c 0 1.504 -1.224 2.728 -2.728 2.728 h -3.194 c -0.409 0 -0.776 0.249 -0.929 0.629 l -3 7.509 l -3.001 -7.509 c -0.152 -0.38 -0.52 -0.629 -0.929 -0.629 H 17.738 C 16.234 43.315 15.01 42.092 15.01 40.588 z M 46.318 45.315 l 3.678 9.203 c 0.152 0.38 0.52 0.629 0.929 0.629 s 0.776 -0.249 0.929 -0.629 l 3.678 -9.203 h 2.517 c 2.606 0 4.728 -2.121 4.728 -4.728 V 27.51 c 0 -2.607 -2.121 -4.728 -4.728 -4.728 H 26.859 V 12.417 H 74.99 v 59.67 H 26.859 V 45.315 H 46.318 z M 70.892 88 H 30.958 c -2.26 0 -4.098 -1.839 -4.098 -4.099 v -9.814 H 74.99 v 9.814 C 74.99 86.161 73.151 88 70.892 88 z" style="stroke: none; stroke-width: 1; stroke-dasharray: none; stroke-linecap: butt; stroke-linejoin: miter; stroke-miterlimit: 10; fill: rgb(0,0,0); fill-rule: nonzero; opacity: 1;" transform=" matrix(1 0 0 1 0 0) " stroke-linecap="round" />
	<path d="M 50.925 85.543 c -2.481 0 -4.5 -2.019 -4.5 -4.5 s 2.019 -4.5 4.5 -4.5 s 4.5 2.019 4.5 4.5 S 53.406 85.543 50.925 85.543 z M 50.925 78.543 c -1.379 0 -2.5 1.121 -2.5 2.5 s 1.121 2.5 2.5 2.5 s 2.5 -1.121 2.5 -2.5 S 52.304 78.543 50.925 78.543 z" style="stroke: none; stroke-width: 1; stroke-dasharray: none; stroke-linecap: butt; stroke-linejoin: miter; stroke-miterlimit: 10; fill: rgb(0,0,0); fill-rule: nonzero; opacity: 1;" transform=" matrix(1 0 0 1 0 0) " stroke-linecap="round" />
	<path d="M 56.452 7.254 H 45.397 c -0.552 0 -1 -0.448 -1 -1 s 0.448 -1 1 -1 h 11.055 c 0.553 0 1 0.448 1 1 S 57.005 7.254 56.452 7.254 z" style="stroke: none; stroke-width: 1; stroke-dasharray: none; stroke-linecap: butt; stroke-linejoin: miter; stroke-miterlimit: 10; fill: rgb(0,0,0); fill-rule: nonzero; opacity: 1;" transform=" matrix(1 0 0 1 0 0) " stroke-linecap="round" />
	<path d="M 53.452 31.157 h -32.31 c -0.552 0 -1 -0.448 -1 -1 s 0.448 -1 1 -1 h 32.31 c 0.553 0 1 0.448 1 1 S 54.005 31.157 53.452 31.157 z" style="stroke: none; stroke-width: 1; stroke-dasharray: none; stroke-linecap: butt; stroke-linejoin: miter; stroke-miterlimit: 10; fill: rgb(0,0,0); fill-rule: nonzero; opacity: 1;" transform=" matrix(1 0 0 1 0 0) " stroke-linecap="round" />
	<path d="M 37.893 38.157 h -16.75 c -0.552 0 -1 -0.448 -1 -1 s 0.448 -1 1 -1 h 16.75 c 0.552 0 1 0.448 1 1 S 38.445 38.157 37.893 38.157 z" style="stroke: none; stroke-width: 1; stroke-dasharray: none; stroke-linecap: butt; stroke-linejoin: miter; stroke-miterlimit: 10; fill: rgb(0,0,0); fill-rule: nonzero; opacity: 1;" transform=" matrix(1 0 0 1 0 0) " stroke-linecap="round" />
</g>
</svg>