<svg id="Layer_1" enable-background="new 0 0 512 512" height="512" viewBox="0 0 512 512" width="512" xmlns="http://www.w3.org/2000/svg"><g><path d="m252.704 21.996c-135.311 0-245.002 109.691-245.002 245.002 0 41.503 10.334 80.587 28.547 114.844l189.506 128.676c8.851.969 17.839 1.482 26.949 1.482 135.311 0 245.002-109.691 245.002-245.002s-109.691-245.002-245.002-245.002z" fill="#4fabf7"/><g><path d="m250.612 350.592c-2.269 0-4.511-1.024-5.986-2.974-2.5-3.303-1.849-8.007 1.454-10.507l90.708-68.659c3.303-2.499 8.006-1.85 10.506 1.454 2.5 3.303 1.849 8.007-1.454 10.507l-90.708 68.659c-1.353 1.025-2.943 1.52-4.52 1.52z" fill="#e9efff"/></g><g><path d="m329.251 189.663c-1.183 0-2.383-.281-3.501-.873l-149.04-78.86c-3.661-1.937-5.059-6.476-3.122-10.137 1.937-3.663 6.475-5.059 10.137-3.121l149.039 78.86c3.661 1.937 5.059 6.476 3.122 10.137-1.345 2.543-3.946 3.994-6.635 3.994z" fill="#e9efff"/></g><path d="m232.413 501.287c9.411-5.541 14.981-9.878 14.981-9.878 19.448-21.725 31.278-50.408 31.278-81.857 0-67.81-54.971-122.781-122.781-122.781-58.281 0-107.077 40.607-119.641 95.071 19.389 36.468 47.734 67.436 82.086 90.013z" fill="#ffdd40"/><path d="m194.258 419.315s-17.767-94.15-32.117-108.501c-9.618-9.618-6.344-18.914-3.138-24.004-1.034-.026-2.072-.039-3.112-.039-58.281 0-107.077 40.607-119.641 95.071 19.389 36.468 47.734 67.436 82.086 90.013l114.078 29.432c9.411-5.541 14.981-9.878 14.981-9.878 13.526-15.11 23.361-33.587 28.1-54.018-43.72 24.623-81.237-18.076-81.237-18.076z" fill="#ffb332"/><path d="m190.354 469.438c-4.165-5.875-5.318-14.957-5.544-21.543-2.921 3.403-5.987 6.248-8.916 8.523-11.748 9.123-28.273 9.111-40.006 0-2.929-2.275-5.995-5.12-8.916-8.523-.232 6.733-1.431 16.074-5.825 21.931-.67.894-1.676 1.621-2.869 2.014 15.249 10.027 31.679 18.402 49.045 24.859 7.752-1.689 15.075-5.077 21.397-9.986 4.348-3.376 8.876-7.534 13.249-12.425-2.524-.813-5.09-1.56-7.72-2.219-1.593-.399-2.992-1.357-3.895-2.631z" fill="#fcad6d"/><path d="m156.301 463.239c-7.205.09-14.432-2.176-20.413-6.821-2.929-2.275-5.995-5.12-8.916-8.523-.232 6.733-1.431 16.074-5.825 21.931-.67.894-1.676 1.621-2.869 2.014 10.435 6.862 21.434 12.928 32.896 18.157 3.809-7.96 4.929-18.494 5.127-26.758z" fill="#fd995b"/><path d="m226.517 485.14c-8.409-4.742-17.096-8.598-26.458-11.443-4.3 4.886-8.779 8.999-13.069 12.33-6.449 5.008-13.997 8.343-21.969 9.797 19.2 7.362 39.56 12.376 60.734 14.694 7.945-5.509 15.211-11.927 21.641-19.111-3.262-1.014-6.839-1.714-10.764-2.035-3.731-.305-5.717-1.752-10.115-4.232z" fill="#3c58a0"/><g><path d="m252.704 21.996c-9.148 0-18.175.518-27.063 1.495 1.655 6.984 3.311 13.969 4.966 20.953 1.946 8.208 4.02 16.693 9.182 23.365 3.24 4.187 7.526 7.425 11.81 10.536 12.584 9.139 25.776 17.727 40.392 23.043s30.879 7.18 45.784 2.738c13.738-4.094 25.819-13.315 39.994-15.449 12.852-1.935 26.283 2.179 38.833-1.203.712-.192 1.415-.409 2.109-.646-43.653-40.242-101.955-64.832-166.007-64.832z" fill="#73c3f9"/></g><g><path d="m297.329 507.933c81.323-14.967 148.577-70.086 180.457-144.045-8.17 1.539-16.598 2.073-24.843 1.831-22.373-.657-44.27-6.278-66.458-9.225-8.284-1.1-16.706-1.826-24.982-.663-21.243 2.987-39.967 19.47-45.622 40.163-4.748 17.372-.795 35.792-1.119 53.798-.37 20.484-6.51 40.816-17.433 58.141z" fill="#73c3f9"/></g><g><g><path d="m146.219 311.069c-29.044 3.957-31.804 20.424-31.817 26.466-.003 1.267-.705 2.441-1.844 2.995-15.108 7.349-6.962 42.77-6.962 42.77 1.517.101 3.793 1.403 4.977 1.977.29-1.805.764-3.582 1.432-5.299.509-1.309 1.146-2.631 1.943-3.88 1.382-2.167 2.011-4.724 1.823-7.281-.543-7.39-.969-21.263 8.785-25.651 8.263-3.718 18.4-1.565 24.864.584 4.198 1.396 8.745 1.396 12.943 0 6.464-2.15 16.6-4.303 24.864-.584 9.726 4.376 9.327 18.179 8.79 25.588-.187 2.576.426 5.159 1.818 7.344.822 1.289 1.474 2.657 1.992 4.007.643 1.678 1.101 3.412 1.384 5.173 1.493-.723 4.314-2.199 6.14-1.94.224-7.745.939-16.095.939-16.095 8.604-42.156-30.799-60.435-62.071-56.174z" fill="#2a428c"/><path d="m146.219 311.069c-29.044 3.957-31.804 20.424-31.817 26.466-.003 1.267-.705 2.441-1.844 2.996-15.108 7.349-6.962 42.77-6.962 42.77 1.517.101 3.793 1.403 4.977 1.977.29-1.805.764-3.582 1.432-5.3.509-1.309 1.146-2.631 1.943-3.88 1.382-2.167 2.011-4.724 1.823-7.281-.543-7.39-.969-21.263 8.785-25.651 8.263-3.718 18.4-1.565 24.864.584 1.768.588 3.599.913 5.439 1.006-.282-.484-.583-.964-.92-1.437-12.46-17.513 4.86-30.274 8.202-32.504-5.361-.535-10.753-.45-15.922.254z" fill="#1c2e7a"/></g><path d="m209.926 384.343c-2.262-2.073-6.768-1.022-8.716.247.427 2.658.451 5.377.082 8.062l-2.299 16.745c0 1.35-.043 2.674-.121 3.975 5.606 1.691 8.391-3.342 8.86-6.796.202-1.487.532-2.952.99-4.382 1.492-4.658 6.871-12.657 1.204-17.851z" fill="#fcad6d"/><path d="m101.855 384.343c2.262-2.073 6.768-1.022 8.716.247-.427 2.658-.451 5.377-.082 8.062l2.299 16.745c0 1.35.043 2.674.121 3.975-5.606 1.691-8.391-3.342-8.86-6.796-.202-1.487-.532-2.952-.99-4.382-1.492-4.658-6.871-12.657-1.204-17.851z" fill="#fd995b"/><path d="m200.513 379.417c-.518-1.35-1.17-2.717-1.992-4.007-1.392-2.184-2.005-4.768-1.818-7.344.537-7.409.249-21.899-9.477-26.276-8.263-3.718-18.399-1.565-24.863.584-4.198 1.396-8.747 1.396-12.945 0-6.464-2.149-16.6-4.302-24.863-.584-9.754 4.389-10.016 18.95-9.473 26.339.188 2.556-.441 5.113-1.823 7.281-.796 1.249-1.433 2.572-1.943 3.88-1.653 4.245-2.134 8.85-1.515 13.358l2.3 16.749c0 24.079 12.853 40.445 23.787 48.935 5.707 4.432 12.75 6.839 20.003 6.839s14.296-2.407 20.003-6.839c10.933-8.49 23.787-24.856 23.787-48.935l2.299-16.745c.612-4.464.147-9.023-1.467-13.235z" fill="#f9ba8f"/><g><path d="m167.819 458.332c-10.933-8.49-23.787-24.856-23.787-48.935l-2.3-16.749c-.619-4.508-.137-9.113 1.515-13.358.51-1.309 1.146-2.631 1.943-3.88 1.382-2.168 2.011-4.724 1.823-7.281-.491-6.681-.322-19.224 6.924-24.811-1.53-.146-3.047-.454-4.521-.944-6.464-2.149-16.6-4.302-24.863-.584-9.754 4.389-10.016 18.95-9.473 26.339.188 2.556-.441 5.113-1.823 7.281-.796 1.249-1.433 2.572-1.943 3.88-1.652 4.245-2.134 8.85-1.515 13.358l2.3 16.749c0 24.079 12.854 40.445 23.787 48.935 5.707 4.432 12.75 6.839 20.003 6.839 5.624 0 11.119-1.453 15.966-4.17-1.402-.787-2.754-1.674-4.036-2.669z" fill="#fcad6d"/></g></g><g><path d="m408.1 314.374c38.232 0 71.692-26.064 71.692-26.064 15.238-17.021 24.506-39.494 24.506-64.135 0-53.129-43.07-96.198-96.198-96.198s-96.198 43.07-96.198 96.198c0 24.64 9.269 47.113 24.504 64.133 0 0 33.463 26.066 71.694 26.066z" fill="#ff4155"/><path d="m438.057 235.566s-14.069-80.732-25.06-88.752c-10.555-7.701-2.462-17.957-1.803-18.759-1.03-.032-2.056-.078-3.094-.078-53.129 0-96.198 43.07-96.198 96.198 0 24.64 9.268 47.113 24.504 64.133 0 0 33.463 26.066 71.694 26.066s71.692-26.064 71.692-26.064c9.196-10.273 16.197-22.54 20.32-36.063-33.536 14.789-62.055-16.681-62.055-16.681z" fill="#e80054"/><g><path d="m382.379 284.63c7.338 5.699 16.394 8.794 25.721 8.794 9.326 0 18.382-3.095 25.72-8.794 3.406-2.645 6.955-5.903 10.381-9.735-1.978-.636-3.988-1.223-6.049-1.739-1.247-.312-2.343-1.063-3.051-2.061-3.263-4.603-4.167-11.719-4.344-16.879-2.289 2.666-4.691 4.895-6.986 6.678-9.204 7.148-22.151 7.139-31.344 0-2.295-1.782-4.697-4.012-6.985-6.678-.182 5.275-1.121 12.594-4.564 17.183-.587.783-1.493 1.423-2.578 1.692-2.143.531-4.24 1.137-6.304 1.803 3.428 3.832 6.977 7.091 10.383 9.736z" fill="#fcad6d"/></g><path d="m407.975 266.247c-5.496-.027-10.985-1.809-15.548-5.353-2.294-1.782-4.696-4.011-6.985-6.678-.182 5.275-1.121 12.594-4.564 17.183-.588.783-1.492 1.423-2.578 1.692-2.143.531-4.24 1.136-6.304 1.803 3.427 3.833 6.975 7.091 10.382 9.737 4.134 3.21 8.824 5.56 13.789 7.03 7.903-7.954 10.78-18.359 11.808-25.414z" fill="#fd995b"/><path d="m471.361 286.714c-2.923-.239-4.479-1.373-7.925-3.316-6.589-3.715-13.395-6.736-20.73-8.965-3.369 3.828-6.879 7.051-10.239 9.66-6.952 5.399-15.531 8.331-24.366 8.331s-17.414-2.932-24.366-8.331c-3.36-2.609-6.87-5.832-10.239-9.66-7.314 2.227-14.161 5.261-20.73 8.965-3.446 1.943-5.001 3.077-7.925 3.316-3.076.251-5.878.8-8.434 1.594 17.615 19.678 43.206 32.065 71.694 32.065s54.08-12.388 71.695-32.065c-2.557-.794-5.36-1.342-8.435-1.594z" fill="#3c58a0"/><g><g><path d="m400.522 147.014c-22.756 3.101-24.918 16.002-24.929 20.736-.002.993-.552 1.913-1.445 2.347-11.837 5.758-5.455 33.51-5.455 33.51 1.189.079 2.972 1.099 3.899 1.549.227-1.414.598-2.806 1.122-4.152.399-1.025.898-2.061 1.522-3.04 1.083-1.698 1.576-3.702 1.428-5.704-.425-5.79-.759-16.659 6.883-20.098 6.474-2.913 14.416-1.226 19.481.458 3.289 1.094 6.852 1.094 10.141 0 5.065-1.684 13.006-3.371 19.481-.458 7.62 3.429 7.307 14.243 6.887 20.048-.146 2.018.333 4.042 1.424 5.754.644 1.01 1.155 2.081 1.561 3.139.504 1.315.863 2.674 1.084 4.053 1.17-.567 3.38-1.723 4.81-1.52.175-6.068.735-12.61.735-12.61 6.745-33.028-24.127-47.35-48.629-44.012z" fill="#2a428c"/><path d="m400.522 147.014c-22.756 3.101-24.918 16.002-24.929 20.736-.002.993-.552 1.913-1.445 2.347-11.837 5.758-5.455 33.51-5.455 33.51 1.189.079 2.972 1.099 3.9 1.549.227-1.414.598-2.807 1.122-4.152.399-1.026.898-2.061 1.522-3.04 1.083-1.698 1.576-3.702 1.428-5.704-.425-5.79-.759-16.659 6.883-20.098 6.474-2.913 14.416-1.226 19.481.458 1.385.461 2.82.715 4.262.788-.221-.379-.457-.755-.721-1.126-9.762-13.721 3.807-23.719 6.427-25.467-4.2-.418-8.424-.352-12.475.199z" fill="#1c2e7a"/></g><path d="m450.436 204.424c-1.772-1.624-5.303-.801-6.829.194.334 2.082.353 4.213.064 6.317l-1.801 13.12c0 1.058-.033 2.095-.095 3.115 4.392 1.325 6.574-2.618 6.942-5.325.158-1.165.417-2.313.776-3.434 1.169-3.65 5.384-9.918.943-13.987z" fill="#fcad6d"/><path d="m365.764 204.424c1.772-1.624 5.303-.801 6.829.194-.334 2.082-.353 4.213-.065 6.317l1.801 13.12c0 1.058.033 2.095.095 3.115-4.392 1.325-6.574-2.618-6.942-5.325-.158-1.165-.417-2.313-.776-3.434-1.168-3.65-5.383-9.918-.942-13.987z" fill="#fd995b"/><path d="m443.061 200.564c-.406-1.058-.917-2.129-1.561-3.139-1.091-1.711-1.571-3.736-1.424-5.754.421-5.805.195-17.158-7.425-20.587-6.474-2.913-14.415-1.227-19.48.458-3.289 1.094-6.854 1.094-10.143 0-5.064-1.684-13.006-3.371-19.48-.458-7.642 3.438-7.847 14.847-7.422 20.636.147 2.003-.346 4.006-1.428 5.704-.624.979-1.123 2.015-1.522 3.04-1.295 3.326-1.672 6.934-1.187 10.466l1.802 13.122c0 18.865 10.071 31.688 18.637 38.34 4.471 3.472 9.989 5.358 15.672 5.358s11.201-1.886 15.672-5.358c8.566-6.652 18.637-19.475 18.637-38.34l1.801-13.12c.48-3.495.116-7.067-1.149-10.368z" fill="#f9ba8f"/><g><path d="m417.446 262.394c-8.566-6.652-18.637-19.475-18.637-38.34l-1.802-13.122c-.485-3.532-.108-7.14 1.187-10.466.399-1.025.898-2.061 1.522-3.04 1.083-1.698 1.576-3.702 1.428-5.704-.385-5.235-.253-15.062 5.425-19.439-1.198-.115-2.387-.356-3.542-.74-5.064-1.684-13.006-3.371-19.48-.458-7.642 3.438-7.847 14.847-7.422 20.636.147 2.003-.346 4.006-1.428 5.704-.624.979-1.123 2.015-1.522 3.04-1.295 3.326-1.672 6.934-1.187 10.466l1.802 13.122c0 18.865 10.071 31.688 18.637 38.34 4.471 3.472 9.989 5.358 15.672 5.358 4.407 0 8.712-1.139 12.509-3.267-1.099-.615-2.158-1.31-3.162-2.09z" fill="#fcad6d"/></g></g><path d="m383.734 284.093c-3.36-2.609-6.87-5.832-10.239-9.66-7.314 2.227-14.161 5.26-20.73 8.965-3.446 1.943-5.001 3.077-7.925 3.316-3.076.252-5.878.8-8.434 1.594 7.543 8.426 16.557 15.502 26.626 20.854 3.763-3.097 9.026-5.911 16.403-7.938 7.722-2.121 13.392-5.922 17.565-10.411-4.78-1.386-9.294-3.635-13.266-6.72z" fill="#2a428c"/></g><g><path d="m121.243 144.191c29.575 0 55.459-20.162 55.459-20.162 11.787-13.167 18.957-30.552 18.957-49.612-.001-41.1-33.318-74.417-74.416-74.417-41.099 0-74.416 33.317-74.416 74.416 0 19.061 7.17 36.445 18.956 49.611-.001 0 25.885 20.164 55.46 20.164z" fill="#4ce088"/><path d="m144.416 83.227s-10.884-62.452-19.386-68.656c-8.165-5.958-1.905-13.891-1.395-14.512-.797-.025-1.59-.06-2.393-.06-41.098.001-74.415 33.318-74.415 74.417 0 19.061 7.17 36.445 18.955 49.611 0 0 25.886 20.164 55.46 20.164 29.575 0 55.459-20.162 55.459-20.162 7.114-7.947 12.529-17.437 15.718-27.897-25.942 11.439-48.003-12.905-48.003-12.905z" fill="#30c16b"/><g><path d="m101.346 121.182c5.677 4.408 12.682 6.802 19.897 6.802s14.22-2.394 19.897-6.802c2.635-2.046 5.38-4.566 8.03-7.531-1.53-.492-3.085-.946-4.679-1.345-.965-.242-1.813-.822-2.36-1.594-2.524-3.561-3.223-9.065-3.361-13.057-1.77 2.062-3.628 3.787-5.404 5.166-7.12 5.529-17.136 5.522-24.247 0-1.775-1.379-3.633-3.103-5.404-5.166-.141 4.081-.867 9.742-3.531 13.292-.454.606-1.155 1.101-1.994 1.309-1.658.41-3.28.879-4.876 1.394 2.651 2.964 5.397 5.485 8.032 7.532z" fill="#fcad6d"/></g><path d="m121.146 106.961c-4.252-.021-8.497-1.399-12.027-4.141-1.775-1.379-3.633-3.103-5.403-5.165-.141 4.081-.868 9.742-3.531 13.292-.454.606-1.154 1.101-1.994 1.309-1.658.41-3.28.879-4.876 1.394 2.651 2.965 5.396 5.485 8.032 7.532 3.198 2.483 6.826 4.301 10.667 5.438 6.111-6.153 8.337-14.202 9.132-19.659z" fill="#fd995b"/><path d="m170.179 122.794c-2.262-.185-3.465-1.063-6.131-2.565-5.097-2.874-10.361-5.211-16.036-6.935-2.606 2.962-5.321 5.454-7.921 7.473-5.378 4.176-12.014 6.444-18.849 6.444s-13.471-2.268-18.849-6.444c-2.599-2.019-5.314-4.511-7.921-7.473-5.658 1.723-10.955 4.07-16.036 6.935-2.666 1.503-3.869 2.381-6.13 2.565-2.379.194-4.547.619-6.524 1.233 13.626 15.222 33.423 24.805 55.46 24.805 22.038 0 41.834-9.583 55.46-24.805-1.976-.615-4.144-1.039-6.523-1.233z" fill="#3c58a0"/><g><g><path d="m115.381 14.727c-17.603 2.398-19.276 12.379-19.284 16.041-.002.768-.427 1.48-1.118 1.815-9.157 4.454-4.22 25.922-4.22 25.922.92.061 2.299.85 3.017 1.198.176-1.094.463-2.171.868-3.212.309-.793.695-1.595 1.177-2.352.837-1.314 1.219-2.863 1.105-4.413-.329-4.479-.587-12.887 5.324-15.547 5.008-2.254 11.152-.949 15.07.354 2.544.846 5.3.846 7.845 0 3.918-1.303 10.061-2.608 15.07-.354 5.895 2.652 5.653 11.018 5.327 15.509-.113 1.561.258 3.127 1.102 4.451.498.782.894 1.61 1.207 2.429.39 1.017.667 2.068.839 3.136.905-.438 2.615-1.333 3.721-1.176.135-4.694.569-9.755.569-9.755 5.216-25.55-18.666-36.629-37.619-34.046z" fill="#2a428c"/><path d="m115.381 14.727c-17.603 2.398-19.276 12.379-19.284 16.041-.002.768-.427 1.48-1.118 1.815-9.157 4.454-4.22 25.922-4.22 25.922.92.061 2.299.85 3.017 1.198.176-1.094.463-2.171.868-3.212.309-.793.695-1.595 1.177-2.352.837-1.314 1.219-2.863 1.105-4.413-.329-4.479-.587-12.887 5.324-15.547 5.008-2.253 11.152-.949 15.07.354 1.072.356 2.181.553 3.297.61-.171-.293-.353-.584-.557-.871-7.552-10.614 2.945-18.349 4.971-19.7-3.249-.323-6.517-.272-9.65.155z" fill="#1c2e7a"/></g><path d="m153.993 59.137c-1.371-1.257-4.102-.62-5.283.15.259 1.611.273 3.259.05 4.886l-1.394 10.149c0 .818-.026 1.621-.073 2.409 3.398 1.025 5.086-2.026 5.37-4.119.122-.901.322-1.789.6-2.656.904-2.823 4.165-7.671.73-10.819z" fill="#fcad6d"/><path d="m88.493 59.137c1.371-1.257 4.102-.62 5.283.15-.259 1.611-.273 3.259-.05 4.886l1.394 10.149c0 .818.026 1.621.073 2.409-3.398 1.025-5.086-2.026-5.37-4.119-.122-.901-.323-1.789-.6-2.656-.905-2.823-4.165-7.671-.73-10.819z" fill="#fd995b"/><path d="m148.288 56.151c-.314-.818-.709-1.647-1.207-2.429-.844-1.324-1.215-2.89-1.102-4.451.325-4.49.151-13.273-5.744-15.925-5.008-2.253-11.151-.949-15.069.354-2.544.846-5.302.846-7.846 0-3.918-1.303-10.061-2.607-15.069-.354-5.912 2.66-6.07 11.485-5.741 15.964.114 1.549-.267 3.099-1.105 4.413-.483.757-.869 1.558-1.177 2.352-1.002 2.573-1.294 5.364-.918 8.096l1.394 10.151c0 14.594 7.79 24.513 14.417 29.659 3.459 2.686 7.727 4.145 12.123 4.145s8.664-1.459 12.123-4.145c6.626-5.146 14.417-15.065 14.417-29.659l1.394-10.149c.37-2.706.088-5.469-.89-8.022z" fill="#f9ba8f"/><g><path d="m128.473 103.98c-6.627-5.146-14.417-15.065-14.417-29.659l-1.394-10.151c-.375-2.732-.083-5.523.918-8.096.309-.793.695-1.595 1.177-2.352.838-1.314 1.219-2.864 1.105-4.413-.298-4.049-.195-11.652 4.197-15.038-.927-.089-1.847-.275-2.74-.572-3.918-1.303-10.061-2.607-15.069-.354-5.912 2.66-6.07 11.485-5.741 15.964.114 1.549-.267 3.099-1.105 4.413-.483.757-.869 1.558-1.177 2.352-1.001 2.573-1.294 5.364-.918 8.096l1.394 10.151c0 14.594 7.79 24.513 14.417 29.659 3.459 2.686 7.727 4.145 12.123 4.145 3.409 0 6.739-.881 9.677-2.527-.851-.477-1.671-1.014-2.447-1.618z" fill="#fcad6d"/></g></g><path d="m102.394 120.766c-2.599-2.018-5.314-4.511-7.921-7.472-5.658 1.723-10.955 4.069-16.036 6.935-2.666 1.503-3.869 2.38-6.131 2.565-2.379.195-4.547.619-6.524 1.234 5.835 6.518 12.808 11.992 20.596 16.132 2.911-2.396 6.982-4.573 12.689-6.14 5.973-1.641 10.36-4.581 13.588-8.054-3.697-1.074-7.188-2.814-10.261-5.2z" fill="#2a428c"/></g></g></svg>