<svg id="Capa_1" enable-background="new 0 0 512 512" height="512" viewBox="0 0 512 512" width="512" xmlns="http://www.w3.org/2000/svg" xmlns:xlink="http://www.w3.org/1999/xlink"><linearGradient id="SVGID_1_" gradientTransform="matrix(.707 .707 -.707 .707 245.76 -110.28)" gradientUnits="userSpaceOnUse" x1="266.24" x2="266.24" y1="427.603" y2="-103.381"><stop offset="0" stop-color="#00b59c"/><stop offset="1" stop-color="#9cffac"/></linearGradient><linearGradient id="SVGID_2_" gradientTransform="matrix(.707 .707 -.707 .707 245.76 -110.28)" gradientUnits="userSpaceOnUse" x1="266.24" x2="266.24" y1="373.392" y2="187.586"><stop offset="0" stop-color="#c3ffe8"/><stop offset=".9973" stop-color="#f0fff4"/></linearGradient><g><g><g><path d="m490.761 1.227-482.236 227.678c-5.169 2.475-8.473 7.686-8.525 13.413-.031 5.749 3.149 11.021 8.297 13.538l151.088 75.545 35.926-14.712-14.712 35.925 75.545 151.088c2.421 4.912 7.596 8.342 13.538 8.297 5.728-.052 10.938-3.356 13.414-8.525l227.677-482.235c5.49-11.456-8.556-25.502-20.012-20.012z" fill="url(#SVGID_1_)"/></g></g><g><g><path d="m301.377 210.623c-5.863-5.863-15.351-5.863-21.213 0l-120.779 120.778 14.143 7.071 7.071 14.143 120.778-120.778c5.862-5.863 5.862-15.351 0-21.214z" fill="url(#SVGID_2_)"/></g></g></g></svg>